<?xml version="1.0" standalone="no"?>
<!DOCTYPE svg PUBLIC "-//W3C//DTD SVG 20010904//EN"
 "http://www.w3.org/TR/2001/REC-SVG-20010904/DTD/svg10.dtd">
<svg version="1.0" xmlns="http://www.w3.org/2000/svg"
 width="512.000000pt" height="512.000000pt" viewBox="0 0 512.000000 512.000000"
 preserveAspectRatio="xMidYMid meet">
<metadata>
Created by potrace 1.14, written by Peter Selinger 2001-2017
</metadata>
<g transform="translate(0.000000,512.000000) scale(0.100000,-0.100000)"
fill="#000000" stroke="none">
<path d="M2638 2986 c-15 -8 -29 -12 -32 -8 -3 3 -6 0 -6 -6 0 -7 -6 -12 -12
-12 -13 -1 -58 -34 -58 -43 0 -5 25 -2 40 3 3 1 8 2 13 1 4 0 7 3 7 7 0 5 21
6 48 2 26 -5 50 -6 55 -3 4 2 7 0 7 -5 0 -5 8 -12 18 -16 45 -15 99 -69 130
-131 33 -65 38 -81 47 -160 4 -27 9 -53 11 -57 3 -4 1 -8 -3 -8 -5 0 -9 -19
-10 -43 -2 -50 -35 -144 -63 -178 -11 -13 -30 -36 -42 -51 -13 -15 -28 -28
-35 -28 -6 0 -13 -5 -15 -11 -2 -5 -12 -12 -23 -14 -11 -2 -22 -4 -25 -5 -3
-1 -8 -2 -12 -1 -5 0 -8 -2 -8 -6 0 -7 -76 -9 -90 -3 -3 1 -9 2 -14 1 -5 -1
-17 6 -28 16 -17 16 -18 16 -12 0 6 -18 88 -77 105 -77 5 0 28 -9 49 -19 22
-11 42 -16 45 -11 3 4 21 11 42 15 94 17 201 109 234 199 7 20 16 36 19 36 3
0 6 10 7 22 3 30 24 41 40 19 13 -19 96 -112 153 -170 l35 -36 98 -1 c53 0 97
2 97 6 0 4 -17 25 -37 47 -21 22 -69 75 -108 118 -38 43 -85 94 -102 113 -18
18 -33 36 -33 38 0 2 -10 14 -22 26 -20 20 -20 22 -4 28 10 3 17 9 17 13 -1 7
27 40 89 106 19 21 64 71 100 111 36 40 73 80 83 89 30 27 19 33 -58 29 -41
-2 -75 0 -75 3 0 12 -53 -4 -71 -22 -11 -11 -17 -19 -15 -19 3 0 -17 -22 -44
-50 -27 -27 -47 -50 -44 -50 2 0 -15 -18 -37 -40 -45 -43 -59 -49 -59 -24 0
23 -56 134 -83 164 -34 38 -103 90 -111 83 -3 -3 -6 -2 -6 4 0 11 -2 12 -95
19 -51 4 -77 1 -97 -10z"/>
<path d="M358 2975 c-2 -2 -15 -6 -28 -8 -59 -10 -90 -20 -90 -28 0 -5 -3 -8
-7 -7 -11 3 -54 -21 -74 -41 -9 -9 -25 -24 -35 -33 -28 -25 -44 -46 -44 -58 0
-5 -5 -10 -11 -10 -6 0 -9 -6 -7 -12 3 -7 -4 -21 -13 -32 -10 -10 -16 -23 -13
-28 3 -4 2 -14 -3 -20 -17 -28 -23 -160 -11 -233 12 -68 104 -226 121 -208 4
3 9 -2 13 -11 3 -9 10 -16 16 -16 5 0 16 -7 25 -15 8 -8 19 -13 24 -10 5 4 9
1 9 -4 0 -6 9 -11 20 -11 11 0 20 -4 20 -8 0 -4 8 -8 18 -9 9 0 33 -4 52 -7
95 -18 202 -3 281 39 27 14 49 23 49 20 0 -4 11 6 25 21 28 30 27 33 -35 95
-28 28 -38 33 -47 23 -7 -6 -9 -15 -5 -19 4 -4 3 -5 -3 -4 -5 2 -20 -2 -33
-10 -41 -22 -107 -38 -152 -36 -60 3 -110 14 -110 25 0 5 -6 7 -13 5 -6 -3
-25 6 -41 20 -16 14 -33 25 -38 25 -5 0 -6 5 -3 10 3 6 2 10 -3 10 -5 0 -15
12 -22 28 -13 26 -17 37 -23 65 -1 6 -5 17 -8 22 -7 11 -3 107 4 140 3 11 7
27 9 35 1 8 9 21 16 28 6 7 12 20 12 28 0 8 4 13 8 10 5 -3 15 6 22 19 7 13
17 22 22 19 4 -3 8 -1 8 4 0 16 72 45 116 47 23 1 46 5 50 7 5 3 16 4 24 3 56
-11 71 -15 101 -30 19 -10 42 -24 51 -32 15 -14 21 -11 57 26 22 23 46 41 53
41 38 0 -124 105 -182 118 -24 5 -167 11 -172 7z"/>
<path d="M3576 2970 c-2 -3 -3 -32 -2 -65 l1 -60 123 1 c104 0 122 -2 123 -15
1 -9 2 -155 3 -326 l1 -310 70 0 70 0 5 325 5 325 100 1 c159 2 146 -1 144 42
-2 21 1 43 5 50 4 7 2 12 -3 12 -6 0 -10 6 -9 12 2 10 -69 13 -315 13 -175 1
-320 -2 -321 -5z"/>
<path d="M4585 2972 c2 -3 -6 -19 -18 -36 -12 -17 -21 -32 -19 -34 1 -1 -5
-19 -14 -40 -10 -20 -18 -40 -18 -44 -1 -4 -7 -13 -13 -19 -7 -7 -13 -19 -13
-25 0 -7 -17 -50 -38 -96 -58 -125 -66 -142 -64 -150 1 -5 -2 -8 -7 -8 -5 0
-15 -20 -22 -45 -7 -25 -17 -45 -21 -45 -4 0 -8 -4 -8 -10 0 -5 -11 -34 -25
-65 -13 -30 -24 -58 -24 -61 0 -3 -6 -15 -13 -27 -8 -12 -19 -34 -25 -48 l-11
-26 79 0 c75 1 80 2 85 24 4 13 11 23 17 23 6 0 7 3 4 7 -4 3 0 17 9 31 8 13
13 26 10 29 -3 3 2 13 11 21 14 14 46 17 217 17 189 1 219 -3 224 -28 1 -4 10
-28 22 -53 11 -26 20 -50 20 -55 0 -11 -1 -11 88 -14 l74 -3 -7 26 c-4 15 -12
30 -18 34 -7 4 -9 8 -4 8 4 0 -6 26 -22 59 -17 32 -27 61 -24 65 4 3 1 6 -5 6
-7 0 -12 5 -12 11 0 6 -15 44 -34 83 -18 40 -37 82 -40 94 -4 12 -11 22 -16
22 -5 0 -7 7 -4 15 4 8 1 15 -5 15 -6 0 -11 6 -11 13 0 7 -12 38 -26 67 -24
49 -45 96 -49 110 -6 19 -31 66 -38 71 -5 3 -8 8 -6 10 1 2 -4 20 -11 40 l-13
35 -83 0 c-46 0 -81 -2 -79 -4z m105 -212 c0 -8 7 -24 15 -34 8 -10 12 -23 9
-27 -3 -5 0 -9 5 -9 6 0 11 -9 11 -19 0 -11 5 -21 10 -23 6 -2 12 -12 14 -23
3 -11 12 -38 22 -60 10 -22 17 -43 16 -47 -1 -5 3 -8 8 -8 21 0 9 -28 -15 -32
-14 -3 -25 -1 -25 4 0 5 -8 5 -17 0 -18 -8 -176 -7 -199 2 -7 3 -15 0 -18 -7
-2 -7 -5 -2 -5 10 -1 12 4 25 9 28 6 4 8 10 5 15 -3 4 2 13 10 20 8 7 13 16
10 20 -3 5 -1 11 5 15 6 4 8 11 5 16 -4 5 -1 9 4 9 6 0 11 5 11 11 0 6 13 38
29 72 15 34 29 67 31 72 1 6 6 18 12 28 9 18 10 18 23 0 8 -10 15 -25 15 -33z"/>
<path d="M1050 2955 c-6 -7 -7 -15 -3 -18 3 -4 1 -7 -6 -7 -7 0 -9 -4 -6 -10
3 -5 1 -10 -4 -10 -6 0 -11 -4 -11 -9 0 -5 -5 -22 -12 -38 -6 -15 -11 -31 -10
-35 1 -5 -2 -8 -6 -8 -9 0 -37 -70 -34 -82 1 -5 -2 -8 -7 -8 -8 0 -24 -37 -22
-52 1 -5 -4 -8 -11 -8 -6 0 -8 -3 -5 -7 4 -3 2 -12 -4 -20 -6 -7 -8 -13 -4
-13 5 0 0 -9 -10 -20 -10 -11 -15 -20 -11 -20 3 0 -1 -11 -10 -25 -9 -14 -13
-25 -9 -25 3 0 -3 -13 -15 -30 -12 -16 -19 -34 -16 -39 4 -5 3 -11 -1 -13 -9
-3 -58 -106 -58 -119 0 -5 -7 -16 -15 -26 -8 -10 -15 -25 -15 -33 0 -8 -2 -17
-5 -20 -17 -16 -38 -70 -29 -76 6 -3 39 -6 74 -6 46 0 68 4 80 16 9 9 14 16
10 16 -3 0 1 13 9 29 9 16 12 31 9 35 -4 3 -2 6 4 6 6 0 13 11 17 24 l6 23
210 0 211 0 21 -46 c12 -25 23 -52 24 -60 6 -31 31 -42 103 -44 40 -1 75 1 78
5 2 5 0 8 -5 8 -5 0 -14 18 -21 40 -6 22 -16 40 -22 40 -5 0 -9 6 -8 13 2 11
-33 98 -66 160 -8 16 -15 35 -15 43 0 8 -4 14 -10 14 -5 0 -10 9 -10 21 0 11
-7 27 -16 36 -8 9 -13 21 -10 29 3 7 -2 18 -10 24 -8 7 -14 19 -14 26 0 8 -4
14 -8 14 -4 0 -8 10 -9 21 -1 12 -10 30 -19 40 -9 11 -14 19 -9 19 4 0 0 11
-9 25 -9 14 -14 25 -10 25 3 0 -4 16 -16 35 -12 19 -19 35 -16 35 3 0 -3 16
-14 35 -11 20 -20 40 -20 46 0 6 -6 16 -12 22 -17 16 -155 17 -168 2z m115
-220 c14 -31 25 -58 25 -60 0 -3 13 -32 29 -65 16 -33 27 -60 24 -60 -3 0 0
-7 7 -15 7 -8 9 -15 4 -15 -5 0 -4 -4 2 -8 6 -4 14 -17 18 -29 7 -21 6 -21
-139 -21 -80 0 -145 4 -145 8 0 12 61 153 72 167 5 7 7 16 4 22 -3 5 -1 11 6
13 10 4 17 23 20 56 1 6 5 12 9 12 4 0 10 11 13 25 10 38 23 30 51 -30z"/>
<path d="M1641 2962 c-7 -2 -8 -9 -1 -21 5 -10 7 -21 3 -24 -9 -10 -10 -680 0
-699 5 -12 4 -18 -5 -18 -8 0 -9 -3 -2 -10 12 -12 124 -17 140 -7 6 3 10 56 9
127 -1 140 -3 137 89 134 49 -2 62 -6 80 -26 11 -14 46 -53 76 -88 30 -35 63
-72 73 -84 10 -12 27 -31 38 -43 18 -22 29 -25 104 -25 77 0 85 2 85 18 0 8
-4 12 -10 9 -5 -3 -10 -1 -10 5 0 6 -5 8 -12 4 -6 -4 -8 -3 -5 3 3 5 -9 26
-28 46 -19 21 -35 42 -35 49 0 6 -3 9 -6 5 -7 -7 -34 17 -34 31 0 5 -12 21
-27 35 -42 40 -63 63 -63 69 0 3 21 13 47 23 92 35 145 115 145 218 0 69 -2
77 -24 127 -28 64 -98 117 -178 136 -34 8 -427 13 -449 6z m431 -145 c49 -21
76 -65 73 -120 -3 -55 -2 -51 -22 -74 -36 -40 -64 -47 -200 -49 -125 -2 -133
-1 -134 17 0 10 0 51 0 89 0 146 0 148 18 152 50 9 231 -1 265 -15z"/>
<path d="M2577 2885 c-14 -7 -28 -11 -30 -9 -8 9 -87 -77 -107 -116 -11 -22
-17 -40 -13 -40 5 0 3 -4 -4 -8 -18 -11 -38 -202 -22 -202 4 0 6 -8 4 -17 -1
-10 0 -22 4 -28 3 -5 6 -16 7 -23 2 -8 6 -21 10 -30 4 -9 8 -19 8 -22 3 -17
47 -80 56 -80 5 0 10 -7 10 -17 0 -9 3 -13 6 -10 4 4 14 -1 23 -11 9 -9 23
-19 31 -21 36 -9 97 -8 115 2 11 6 23 10 28 9 4 -1 7 2 7 8 0 6 7 10 15 10 8
0 15 4 15 9 0 5 -11 8 -25 5 -48 -8 -101 14 -144 61 -22 24 -41 53 -41 63 0
10 -5 23 -12 30 -8 8 -12 46 -12 105 0 104 5 134 29 171 10 14 14 26 11 26 -4
0 5 13 21 29 15 16 31 27 36 24 4 -2 7 3 7 11 0 18 79 37 98 23 6 -5 12 -6 12
-2 0 4 6 2 13 -4 10 -8 14 -7 14 4 0 14 -9 19 -22 13 -2 -2 -11 6 -19 17 -9
14 -27 22 -52 23 -20 2 -40 5 -44 7 -3 2 -18 -2 -33 -10z"/>
</g>
</svg>
